<svg xmlns="http://www.w3.org/2000/svg" version="1.1" xmlns:xlink="http://www.w3.org/1999/xlink" xmlns:svgjs="http://svgjs.dev/svgjs" width="1000" height="1000" viewBox="0 0 1000 1000"><rect width="1000" height="1000" fill="#000000"></rect><g transform="matrix(0.7,0,0,0.7,149.57605563665675,364.43325844008484)"><svg viewBox="0 0 396 154" data-background-color="#046380" preserveAspectRatio="xMidYMid meet" height="388" width="1000" xmlns="http://www.w3.org/2000/svg" xmlns:xlink="http://www.w3.org/1999/xlink"><g id="tight-bounds" transform="matrix(1,0,0,1,0.24008861730862918,-0.13206760524663252)"><svg viewBox="0 0 395.52 154.26404670611439" height="154.26404670611439" width="395.52"><g><svg viewBox="0 0 395.52 154.26404670611439" height="154.26404670611439" width="395.52"><g><svg viewBox="0 0 395.52 154.26404670611439" height="154.26404670611439" width="395.52"><g id="textblocktransform"><svg viewBox="0 0 395.52 154.26404670611439" height="154.26404670611439" width="395.52" id="textblock"><g><svg viewBox="0 0 395.52 154.26404670611439" height="154.26404670611439" width="395.52"><path d="M394.594 33.087C392.735 17.074 387.435 12.623 387.435 12.623 371.165-3.87 350.86-0.316 332.619 2.054 300.414 2.15 268.339 5.673 236.208 7.563 168.767 7.851 100.749 3.111 33.643 14.8 27.339 18.387-6.54 15.505 1.121 35.136 3.129 43.303 10.456 52.366 10.232 59.86 11.236 61.173 12.631 58.162 13.226 60.052 15.309 65.144 18.711 62.742 21.501 65.752 17.614 73.791 20.403 80.484 23.062 87.497 18.377 89.323 12.371 88.458 9.675 94.511 9.396 98.898 7.89 98.066 6.235 97.873 5.026 97.745 2.59 98.226 2.999 99.603 4.394 104.311-1.594 107.033 2.162 111.644-0.422 116.64 3.948 120.964 3.353 126.376 3.278 127.465 3.687 128.393 4.338 128.65 7.22 130.027 3.018 132.717 3.464 135.631 33.029 155.551 65.104 141.78 95.394 150.939 103.259 144.534 97.346 153.213 100.489 151.868 102.943 150.299 104.728 156.8 107.499 153.117 107.927 152.06 107.276 149.562 108.8 150.042 109.6 150.299 110.307 150.235 110.418 148.761 110.586 146.552 109.117 147.929 108.726 146.776 112.947 140.947 111.906 154.814 115.866 154.238 115.68 152.54 114.528 150.106 116.889 150.427 119.232 147.993 119.306 145.975 121.389 151.451 121.463 152.636 121.835 153.469 122.43 154.046 128.938 148.089 135.409 156.159 142.233 153.469 146.417 150.523 150.433 155.07 154.672 153.949 156.16 153.053 157.666 151.451 159.098 154.142 176.632 154.718 195.319 152.316 211.943 154.238 256.364 150.651 303.836 155.711 350.674 150.971 361.719 149.146 373.192 146.552 383.958 144.47 383.958 144.47 392.679 138.77 392.679 113.149S394.538 90.732 394.817 70.332C395.096 49.932 396.398 49.099 394.538 33.087Z" opacity="1" fill="#ffffff" data-fill-palette-color="tertiary"></path><g transform="matrix(1,0,0,1,55.76832,26.230666666666668)"><svg width="283.98335999999995" viewBox="6.71 -35.01 99.02000000000001 35.5" height="101.80271337278106" data-palette-color="#046380"><path d="M24.07-34.94L24.07-34.94Q28.81-34.94 33.5-33.08L33.5-33.08 32.23-29.64Q27.49-31.27 23.95-31.27L23.95-31.27Q21.02-31.27 18.52-30.11 16.02-28.96 14.37-27.01 12.72-25.07 11.79-22.57 10.86-20.07 10.86-17.33L10.86-17.33Q10.86-14.5 11.85-11.95 12.84-9.4 14.62-7.48 16.41-5.57 19.06-4.44 21.7-3.32 24.85-3.32L24.85-3.32Q28.61-3.32 32.69-4.79L32.69-4.79 33.96-1.71Q28.86 0.49 23.8 0.49L23.8 0.49Q20.68 0.49 17.94-0.42 15.21-1.32 13.17-2.94 11.13-4.57 9.67-6.79 8.2-9.01 7.46-11.68 6.71-14.36 6.71-17.31L6.71-17.31Q6.71-22.31 8.8-26.29 10.89-30.27 14.87-32.6 18.85-34.94 24.07-34.94ZM42.5 0L42.5-34.69 47.75-34.69 66.65-5.66 66.65-34.69 70.8-34.69 70.8 0 65.55 0 46.65-29.08 46.65 0 42.5 0ZM95.97-35.01L95.97-35.01Q99.97-35.01 104.58-33.62L104.58-33.62 103.24-29.83Q98.85-31.1 95.62-31.1L95.62-31.1Q92.01-31.1 89.51-29.58 87.01-28.05 87.01-25.63L87.01-25.63Q87.01-24.29 87.81-23.24 88.62-22.19 89.94-21.53 91.25-20.87 92.94-20.23 94.62-19.58 96.37-19.04 98.12-18.51 99.8-17.68 101.48-16.85 102.8-15.86 104.12-14.87 104.93-13.28 105.73-11.69 105.73-9.69L105.73-9.69Q105.73-8.3 105.29-6.92 104.85-5.54 103.83-4.19 102.8-2.83 101.29-1.81 99.78-0.78 97.47-0.15 95.16 0.49 92.33 0.49 89.5 0.49 87.12-0.1 84.74-0.68 81.78-1.86L81.78-1.86 83.2-5.88Q89.3-3.61 92.84-3.61L92.84-3.61Q96.55-3.61 98.88-5.1 101.22-6.59 101.22-9.08L101.22-9.08Q101.22-10.74 100.18-11.95 99.14-13.16 97.49-13.9 95.84-14.65 93.84-15.3 91.84-15.94 89.85-16.69 87.86-17.43 86.21-18.41 84.57-19.38 83.53-21.04 82.49-22.71 82.49-24.95L82.49-24.95Q82.49-26.95 83.45-28.78 84.42-30.62 86.13-31.99 87.84-33.37 90.4-34.19 92.96-35.01 95.97-35.01Z" opacity="1" transform="matrix(1,0,0,1,0,0)" fill="#000000" class="wordmark-text-0" data-fill-palette-color="quaternary" id="text-0"></path></svg></g></svg></g></svg></g></svg></g><g></g></svg></g><defs></defs></svg><rect width="395.52" height="154.26404670611439" fill="none" stroke="none" visibility="hidden"></rect></g></svg></g></svg>